<svg width="37" height="34" viewBox="0 0 37 34" fill="none" xmlns="http://www.w3.org/2000/svg">
<path d="M30.3492 11.3502C29.966 11.2188 29.5797 11.097 29.1904 10.985C29.2558 10.7178 29.316 10.4539 29.3694 10.1946C30.2467 5.9363 29.6732 2.50576 27.7144 1.37626C25.8364 0.293444 22.765 1.42252 19.6631 4.1221C19.3574 4.38862 19.0584 4.66283 18.7666 4.94448C18.5712 4.7572 18.3724 4.57356 18.1702 4.39365C14.9192 1.50718 11.6607 0.290632 9.70402 1.42337C7.82766 2.50955 7.27205 5.73451 8.0618 9.77016C8.14037 10.1699 8.22909 10.5675 8.32786 10.9627C7.86661 11.0937 7.42153 11.2332 6.99558 11.3817C3.18408 12.7106 0.75 14.7931 0.75 16.9533C0.75 19.1843 3.36309 21.4221 7.33294 22.779C7.65479 22.8885 7.97931 22.99 8.3062 23.0834C8.20007 23.5091 8.10582 23.9376 8.02355 24.3684C7.27064 28.3341 7.85859 31.4828 9.72989 32.5621C11.6626 33.6767 14.9066 32.5312 18.0652 29.77C18.3213 29.5455 18.5717 29.3147 18.8164 29.0777C19.1324 29.3827 19.4569 29.6787 19.7895 29.9656C22.8492 32.5984 25.871 33.6615 27.7404 32.5793C29.6714 31.4614 30.299 28.0788 29.4842 23.9634C29.42 23.641 29.348 23.3202 29.2683 23.0013C29.4961 22.9338 29.7197 22.8643 29.9377 22.792C34.0648 21.4247 36.75 19.2141 36.75 16.9533C36.75 14.7853 34.2373 12.6887 30.3492 11.3502ZM29.4541 21.3324C29.257 21.3974 29.0555 21.4605 28.8494 21.5215C28.3938 20.0791 27.779 18.5454 27.0265 16.9607C27.7445 15.4139 28.3357 13.8998 28.7785 12.4668C29.1468 12.5734 29.5042 12.6857 29.8487 12.8043C33.1801 13.9512 35.2121 15.6467 35.2121 16.9533C35.2121 18.3449 33.0175 20.1515 29.4541 21.3324ZM27.9756 24.2621C28.3358 26.0818 28.3872 27.7271 28.1485 29.0134C27.9342 30.1692 27.5031 30.9397 26.9698 31.2484C25.8354 31.9051 23.4092 31.0515 20.7926 28.7998C20.4833 28.5331 20.1814 28.2578 19.8874 27.9744C20.9018 26.865 21.9156 25.5753 22.905 24.1429C24.6454 23.9885 26.2896 23.7359 27.7807 23.3912C27.8543 23.6877 27.9192 23.978 27.9756 24.2621ZM13.0232 31.1349C11.9148 31.5263 11.0319 31.5375 10.4983 31.2298C9.36272 30.5749 8.89064 28.0466 9.53456 24.6553C9.61111 24.2546 9.69875 23.856 9.79739 23.4602C11.272 23.7864 12.9042 24.021 14.6487 24.1624C15.6449 25.564 16.6879 26.8523 17.739 27.9804C17.5156 28.1965 17.287 28.4072 17.0532 28.6121C15.6564 29.833 14.2568 30.6992 13.0232 31.1349ZM7.83047 21.3238C6.07505 20.7237 4.62534 19.944 3.63169 19.093C2.73872 18.3285 2.28802 17.5692 2.28802 16.9533C2.28802 15.6424 4.24228 13.9704 7.50183 12.834C7.89741 12.6961 8.31141 12.5661 8.74102 12.444C9.19158 13.9093 9.78248 15.4414 10.4956 16.9907C9.7732 18.5629 9.17386 20.1195 8.71894 21.6021C8.42055 21.5166 8.12431 21.4238 7.83047 21.3238ZM9.57113 9.47471C8.89458 6.01716 9.34387 3.40899 10.4746 2.75438C11.679 2.05716 14.3421 3.05124 17.1491 5.54368C17.3322 5.70657 17.5122 5.87277 17.6893 6.04219C16.6433 7.16537 15.6098 8.44407 14.6225 9.83738C12.9294 9.99432 11.3087 10.2463 9.81862 10.584C9.7268 10.2164 9.64427 9.84644 9.57113 9.47471ZM25.0999 13.3094C24.748 12.7015 24.383 12.1012 24.0052 11.509C25.1538 11.6543 26.2543 11.8471 27.2878 12.0827C26.9775 13.0772 26.5908 14.1169 26.1356 15.1828C25.8029 14.5515 25.4576 13.9269 25.0999 13.3094ZM18.7673 7.14146C19.4766 7.90998 20.187 8.76793 20.8858 9.69887C19.4683 9.63191 18.0484 9.63163 16.6309 9.69802C17.3304 8.77566 18.0469 7.91884 18.7673 7.14146ZM12.394 13.3198C12.0408 13.9324 11.702 14.5531 11.3777 15.1814C10.93 14.1193 10.5468 13.0749 10.2339 12.0663C11.261 11.8365 12.3563 11.6486 13.4977 11.506C13.1157 12.1019 12.7477 12.7067 12.394 13.3198ZM13.5304 22.5098C12.3513 22.3782 11.2395 22.2 10.2127 21.9764C10.5305 20.9499 10.9221 19.8832 11.3796 18.7983C11.7051 19.4271 12.0453 20.0482 12.4001 20.661C12.7649 21.291 13.1426 21.9081 13.5304 22.5098ZM18.8098 26.8734C18.0808 26.087 17.3537 25.217 16.6437 24.2813C17.3331 24.3083 18.0358 24.322 18.75 24.322C19.4838 24.322 20.2091 24.3056 20.9231 24.2738C20.2221 25.2264 19.5143 26.0977 18.8098 26.8734ZM26.1501 18.7429C26.6313 19.8398 27.0369 20.9008 27.3589 21.9098C26.3152 22.148 25.1882 22.3398 24.0008 22.4822C24.3813 21.879 24.7498 21.2683 25.106 20.6505C25.4681 20.0224 25.8163 19.3864 26.1501 18.7429ZM23.7738 19.8821C23.2285 20.8294 22.6525 21.7587 22.0468 22.6686C20.9496 22.7463 19.85 22.7849 18.75 22.7843C17.6296 22.7843 16.5399 22.7494 15.4906 22.6814C14.869 21.7736 14.2821 20.8427 13.731 19.8905C13.1824 18.9435 12.6701 17.9759 12.195 16.9899C12.6689 16.0036 13.1797 15.0356 13.7265 14.0878L13.7263 14.0879C14.2727 13.1398 14.855 12.2129 15.4719 11.309C16.5425 11.228 17.6403 11.1858 18.7499 11.1858C19.8645 11.1858 20.9639 11.2284 22.0342 11.31C22.6448 12.2125 23.2234 13.1363 23.7688 14.0796C24.3172 15.0254 24.8348 15.9887 25.3207 16.9681C24.8398 17.9574 24.3238 18.9294 23.7738 19.8821ZM26.9463 2.7084C28.1518 3.40365 28.6206 6.20729 27.8632 9.88393C27.8146 10.1187 27.7607 10.3573 27.7015 10.5997C26.2078 10.2549 24.5859 9.99854 22.8879 9.83921C21.8987 8.43057 20.8737 7.1499 19.8448 6.04121C20.1144 5.78128 20.3905 5.52807 20.6728 5.28184C23.3306 2.96898 25.8146 2.05576 26.9463 2.7084ZM18.75 13.7386C20.5254 13.7386 21.9647 15.1779 21.9647 16.9533C21.9647 18.7287 20.5254 20.168 18.75 20.168C16.9746 20.168 15.5353 18.7287 15.5353 16.9533C15.5353 15.1779 16.9746 13.7386 18.75 13.7386Z" fill="#00D8FF"/>
</svg>
