<svg width="37" height="36" viewBox="0 0 37 36" fill="none" xmlns="http://www.w3.org/2000/svg">
<path d="M27.8125 0H8.6875C4.0276 0 0.25 3.7776 0.25 8.4375V27.5625C0.25 32.2224 4.0276 36 8.6875 36H27.8125C32.4724 36 36.25 32.2224 36.25 27.5625V8.4375C36.25 3.7776 32.4724 0 27.8125 0Z" fill="#0277BD"/>
<path d="M7.80902 14.4353L8.21148 18.9271H18.2635V14.4353H7.80902ZM18.2634 5.34375H7L7.40837 9.83559H18.2634V5.34375ZM18.2634 30.7745V26.1011L18.2437 26.1063L13.2411 24.7556L12.9213 21.1731H8.41216L9.04145 28.226L18.2427 30.7803L18.2634 30.7745Z" fill="#EBEBEB"/>
<path d="M23.7791 18.9271L23.2576 24.7527L18.2479 26.1049V30.778L27.4564 28.226L27.5239 27.467L28.5794 15.6416L28.689 14.4353L29.5 5.34375H18.2479V9.83559H24.5773L24.1686 14.4353H18.2479V18.9271H23.7791Z" fill="white"/>
</svg>
