<svg width="37" height="36" viewBox="0 0 37 36" fill="none" xmlns="http://www.w3.org/2000/svg">
<path d="M16.4 24.3L26.975 13.725L24.875 11.625L16.4 20.1L12.125 15.825L10.025 17.925L16.4 24.3ZM8 31.5C7.175 31.5 6.469 31.2065 5.882 30.6195C5.295 30.0325 5.001 29.326 5 28.5V7.5C5 6.675 5.294 5.969 5.882 5.382C6.47 4.795 7.176 4.501 8 4.5H29C29.825 4.5 30.5315 4.794 31.1195 5.382C31.7075 5.97 32.001 6.676 32 7.5V28.5C32 29.325 31.7065 30.0315 31.1195 30.6195C30.5325 31.2075 29.826 31.501 29 31.5H8Z" fill="#14AE5C"/>
</svg>
