<svg width="37" height="36" viewBox="0 0 37 36" fill="none" xmlns="http://www.w3.org/2000/svg">
<path d="M18.5 15C20.0913 15 21.6174 14.3679 22.7426 13.2426C23.8679 12.1174 24.5 10.5913 24.5 9C24.5 7.4087 23.8679 5.88258 22.7426 4.75736C21.6174 3.63214 20.0913 3 18.5 3C16.9087 3 15.3826 3.63214 14.2574 4.75736C13.1321 5.88258 12.5 7.4087 12.5 9C12.5 10.5913 13.1321 12.1174 14.2574 13.2426C15.3826 14.3679 16.9087 15 18.5 15ZM8.75 19.5C9.74456 19.5 10.6984 19.1049 11.4017 18.4017C12.1049 17.6984 12.5 16.7446 12.5 15.75C12.5 14.7554 12.1049 13.8016 11.4017 13.0983C10.6984 12.3951 9.74456 12 8.75 12C7.75544 12 6.80161 12.3951 6.09835 13.0983C5.39509 13.8016 5 14.7554 5 15.75C5 16.7446 5.39509 17.6984 6.09835 18.4017C6.80161 19.1049 7.75544 19.5 8.75 19.5ZM32 15.75C32 16.7446 31.6049 17.6984 30.9017 18.4017C30.1984 19.1049 29.2446 19.5 28.25 19.5C27.2554 19.5 26.3016 19.1049 25.5983 18.4017C24.8951 17.6984 24.5 16.7446 24.5 15.75C24.5 14.7554 24.8951 13.8016 25.5983 13.0983C26.3016 12.3951 27.2554 12 28.25 12C29.2446 12 30.1984 12.3951 30.9017 13.0983C31.6049 13.8016 32 14.7554 32 15.75ZM18.5 16.5C20.4891 16.5 22.3968 17.2902 23.8033 18.6967C25.2098 20.1032 26 22.0109 26 24V33H11V24C11 22.0109 11.7902 20.1032 13.1967 18.6967C14.6032 17.2902 16.5109 16.5 18.5 16.5ZM8 24C8 22.9605 8.15 21.957 8.432 21.009L8.177 21.03C6.89132 21.1712 5.703 21.782 4.83989 22.7453C3.97679 23.7086 3.49966 24.9566 3.5 26.25V33H8V24ZM33.5 33V26.25C33.5002 24.9126 32.9899 23.6255 32.0733 22.6515C31.1567 21.6775 29.903 21.09 28.568 21.009C28.8485 21.957 29 22.9605 29 24V33H33.5Z" fill="#FFA629"/>
</svg>
