<svg width="37" height="36" viewBox="0 0 37 36" fill="none" xmlns="http://www.w3.org/2000/svg">
<path d="M27.5 11.25V13.5H29.75V29.25H14V27H11.75L11.5947 31.5L32 31.5023V11.25H27.5Z" fill="#FFCA28"/>
<path d="M5 4.5V24.75H25.25V4.5H5ZM11.75 11.25H14V20.25C13.9982 20.8462 13.7606 21.4175 13.339 21.839C12.9175 22.2606 12.3462 22.4982 11.75 22.5H9.5C8.90381 22.4982 8.33255 22.2606 7.91098 21.839C7.48941 21.4175 7.25178 20.8462 7.25 20.25V18H9.5V20.25H11.75V11.25ZM18.5 11.25H23V13.5H18.5V15.75H20.75C21.3462 15.7518 21.9175 15.9894 22.339 16.411C22.7606 16.8325 22.9982 17.4038 23 18V20.25C22.9982 20.8462 22.7606 21.4175 22.339 21.839C21.9175 22.2606 21.3462 22.4982 20.75 22.5H16.25V20.25H20.75V18H18.5C17.9038 17.9982 17.3325 17.7606 16.911 17.339C16.4894 16.9175 16.2518 16.3462 16.25 15.75V13.5C16.2518 12.9038 16.4894 12.3325 16.911 11.911C17.3325 11.4894 17.9038 11.2518 18.5 11.25Z" fill="#FFCA28"/>
</svg>
