<svg width="37" height="36" viewBox="0 0 37 36" fill="none" xmlns="http://www.w3.org/2000/svg">
<path d="M22.9726 1.45227C23.8968 3.7806 23.8968 3.78067 22.5887 5.91711C24.917 4.99286 24.9171 4.99279 27.0535 6.30081C26.1293 3.97248 26.1292 3.97255 27.4372 1.83611C25.1089 2.76043 25.109 2.76036 22.9726 1.45227ZM8.447 2.67339C7.61675 4.15276 7.61675 4.15276 5.93516 4.37615C7.41453 5.20647 7.41453 5.2064 7.63791 6.88806C8.46816 5.40868 8.46816 5.40868 10.1498 5.1853C8.67038 4.35505 8.67038 4.35505 8.447 2.67339ZM13.8294 6.62383C13.7625 10.1808 13.7626 10.1808 10.8769 12.2615C14.4338 12.3283 14.4339 12.3283 16.5146 15.2139C16.5814 11.6569 16.5814 11.6569 19.467 9.57625C15.91 9.50945 15.91 9.50945 13.8294 6.62383H13.8294ZM27.2716 10.5532C27.2683 12.2497 27.2682 12.2495 25.9091 13.2648C27.6055 13.2681 27.6055 13.268 28.6208 14.6271C28.6241 12.9307 28.624 12.9308 29.9831 11.9155C28.2867 11.9122 28.2868 11.9123 27.2716 10.5532ZM14.328 16.4511C14.2461 16.4527 14.1643 16.4558 14.0825 16.4605C12.7753 16.5353 11.1386 17.0522 8.63712 18.0464L5.84459 30.4863C11.3632 29.0284 15.194 28.9458 17.8673 30.1618V17.4171C16.5964 16.7975 15.6321 16.475 14.5832 16.4513C14.4982 16.4495 14.4131 16.4495 14.3281 16.4511L14.328 16.4511ZM22.9544 17.254C22.7548 17.2523 22.5552 17.2546 22.3557 17.2609C21.455 17.2902 20.4124 17.4167 19.1326 17.5789V30.0337C22.1958 29.4835 26.6455 29.7384 31.1732 30.5657L28.3762 18.1065C25.8517 17.518 24.3973 17.2691 22.9544 17.2541V17.254ZM23.1153 18.4458C24.4434 18.4602 25.7065 18.6404 26.8916 18.7988L27.2036 19.9606C25.5315 19.6969 22.5653 19.6156 20.702 19.8917L20.6573 18.6397C21.4981 18.4883 22.3184 18.4372 23.1153 18.4458ZM5.50323 18.7733L4.75672 22.008H6.45083L7.17687 18.7733H5.50323ZM29.823 18.7733L32.6173 31.2208L32.7748 31.9221L34.3632 31.9114L31.4906 18.7733H29.823ZM24.2784 22.8388C25.4732 22.8406 26.6458 22.8944 27.7339 22.9951L27.9817 24.2027C25.6864 23.9861 22.8784 23.9995 20.7399 24.2027L20.69 22.9951C21.8666 22.8873 23.0835 22.837 24.2784 22.8388ZM4.46478 23.2733L3.97794 25.383H5.69314L6.1667 23.2733H4.46478ZM23.7598 25.1889C24.0872 25.1904 24.4269 25.1949 24.7945 25.2032L24.9742 26.4335C23.57 26.4004 21.6614 26.4729 20.7745 26.5074L20.7253 25.2428C21.9068 25.2081 22.7777 25.1846 23.7598 25.1889ZM26.6761 25.2204C27.2574 25.2233 27.8501 25.2438 28.3721 25.2252L28.5535 26.4726C27.9451 26.4506 26.8048 26.4142 26.299 26.4373L26.1016 25.2255C26.2931 25.2207 26.4846 25.219 26.6761 25.2204ZM3.686 26.6483L2.42143 32.1276L4.1817 32.1157L5.40901 26.6483H3.686ZM25.0022 27.4814C26.3809 27.4807 27.7205 27.5358 28.9713 27.6622L29.1819 29.1238C26.7699 28.8254 23.1523 28.5826 20.8077 28.8957L20.7979 27.6356C22.2055 27.5386 23.6235 27.4821 25.0022 27.4814ZM13.2877 30.5787C11.1705 30.585 8.51239 31.0181 5.17311 31.968L4.66545 32.1124L17.8673 32.0231V31.5768C16.7257 30.9295 15.2362 30.5729 13.2878 30.5787H13.2877ZM22.7384 31.0128C21.3582 31.0175 20.129 31.114 19.1326 31.3068V32.0144L31.6197 31.9299C28.5033 31.3228 25.3522 31.0038 22.7385 31.0128H22.7384ZM2.32812 33.3985V34.6641H34.6719V33.3985H2.32812Z" fill="#0288D1"/>
</svg>
