<svg width="36" height="36" viewBox="0 0 36 36" fill="none" xmlns="http://www.w3.org/2000/svg">
<path d="M14.79 3C13.6522 3 12.561 3.45198 11.7565 4.25651C10.952 5.06104 10.5 6.15222 10.5 7.29V9.81H16.935C17.52 9.81 18 10.665 18 11.25H7.29C6.15222 11.25 5.06104 11.702 4.25651 12.5065C3.45198 13.311 3 14.4022 3 15.54V21.2115C3 22.3493 3.45198 23.4405 4.25651 24.245C5.06104 25.0495 6.15222 25.5015 7.29 25.5015H9.06V21.4815C9.05803 20.9188 9.16714 20.3613 9.3811 19.8409C9.59505 19.3205 9.90964 18.8475 10.3068 18.4489C10.704 18.0504 11.1759 17.7341 11.6956 17.5183C12.2152 17.3026 12.7723 17.1915 13.335 17.1915H21.21C23.58 17.1915 25.5 15.285 25.5 12.915V7.29C25.5 6.15222 25.048 5.06104 24.2435 4.25651C23.439 3.45198 22.3478 3 21.21 3H14.79ZM13.71 5.415C14.31 5.415 14.79 5.595 14.79 6.48C14.79 7.365 14.31 7.8165 13.71 7.8165C13.125 7.8165 12.645 7.3665 12.645 6.4815C12.645 5.5965 13.125 5.415 13.71 5.415Z" fill="#0288D1"/>
<path d="M26.9385 10.5V14.52C26.9403 15.0825 26.831 15.6399 26.617 16.1601C26.4029 16.6803 26.0883 17.1532 25.6912 17.5516C25.294 17.95 24.8221 18.2661 24.3026 18.4818C23.783 18.6975 23.226 18.8085 22.6635 18.8085H14.79C14.2273 18.8065 13.6698 18.9156 13.1494 19.1296C12.629 19.3436 12.156 19.6581 11.7574 20.0553C11.3589 20.4525 11.0426 20.9244 10.8268 21.4441C10.6111 21.9637 10.5 22.5208 10.5 23.0835V28.7085C10.5 29.8463 10.952 30.9375 11.7565 31.742C12.561 32.5465 13.6522 32.9985 14.79 32.9985H21.21C22.3475 32.9985 23.4385 32.5467 24.243 31.7425C25.0474 30.9383 25.4996 29.8475 25.5 28.71V26.19H19.0635C18.4785 26.19 18 25.335 18 24.75H28.71C29.8478 24.75 30.939 24.298 31.7435 23.4935C32.548 22.689 33 21.5978 33 20.46V14.79C33 13.6522 32.548 12.561 31.7435 11.7565C30.939 10.952 29.8478 10.5 28.71 10.5H26.9385ZM12.48 17.2695L12.474 17.2755L12.531 17.2695H12.48ZM22.29 28.1835C22.875 28.1835 23.355 28.6335 23.355 29.5185C23.355 29.6584 23.3275 29.7968 23.2739 29.9261C23.2204 30.0553 23.142 30.1727 23.0431 30.2716C22.9442 30.3705 22.8268 30.4489 22.6976 30.5024C22.5683 30.556 22.4299 30.5835 22.29 30.5835C21.69 30.5835 21.21 30.4035 21.21 29.5185C21.21 28.6335 21.69 28.1835 22.29 28.1835Z" fill="#FDD835"/>
</svg>
