<svg width="30" height="30" viewBox="0 0 30 30" fill="none" xmlns="http://www.w3.org/2000/svg">
<path d="M23.75 5C24.413 5 25.0489 5.26339 25.5178 5.73223C25.9866 6.20107 26.25 6.83696 26.25 7.5V22.5C26.25 23.163 25.9866 23.7989 25.5178 24.2678C25.0489 24.7366 24.413 25 23.75 25H6.25C5.58696 25 4.95107 24.7366 4.48223 24.2678C4.01339 23.7989 3.75 23.163 3.75 22.5V7.5C3.75 6.83696 4.01339 6.20107 4.48223 5.73223C4.95107 5.26339 5.58696 5 6.25 5H23.75ZM23.75 15H6.25V22.5H23.75V15ZM23.75 7.5H6.25V12.5H23.75V7.5ZM8.75 8.75C9.08152 8.75 9.39946 8.8817 9.63388 9.11612C9.8683 9.35054 10 9.66848 10 10C10 10.3315 9.8683 10.6495 9.63388 10.8839C9.39946 11.1183 9.08152 11.25 8.75 11.25C8.41848 11.25 8.10054 11.1183 7.86612 10.8839C7.6317 10.6495 7.5 10.3315 7.5 10C7.5 9.66848 7.6317 9.35054 7.86612 9.11612C8.10054 8.8817 8.41848 8.75 8.75 8.75ZM12.5 8.75C12.8315 8.75 13.1495 8.8817 13.3839 9.11612C13.6183 9.35054 13.75 9.66848 13.75 10C13.75 10.3315 13.6183 10.6495 13.3839 10.8839C13.1495 11.1183 12.8315 11.25 12.5 11.25C12.1685 11.25 11.8505 11.1183 11.6161 10.8839C11.3817 10.6495 11.25 10.3315 11.25 10C11.25 9.66848 11.3817 9.35054 11.6161 9.11612C11.8505 8.8817 12.1685 8.75 12.5 8.75ZM16.25 8.75C16.5815 8.75 16.8995 8.8817 17.1339 9.11612C17.3683 9.35054 17.5 9.66848 17.5 10C17.5 10.3315 17.3683 10.6495 17.1339 10.8839C16.8995 11.1183 16.5815 11.25 16.25 11.25C15.9185 11.25 15.6005 11.1183 15.3661 10.8839C15.1317 10.6495 15 10.3315 15 10C15 9.66848 15.1317 9.35054 15.3661 9.11612C15.6005 8.8817 15.9185 8.75 16.25 8.75Z" fill="black"/>
</svg>