<svg width="37" height="36" viewBox="0 0 37 36" fill="none" xmlns="http://www.w3.org/2000/svg">
<path d="M33.125 14.625C33.125 20.8384 28.0884 25.875 21.875 25.875C15.6616 25.875 10.625 20.8384 10.625 14.625C10.625 8.41163 15.6616 3.375 21.875 3.375C28.0884 3.375 33.125 8.41163 33.125 14.625Z" fill="#00A6ED"/>
<path d="M27.8915 8.69856C28.5125 9.77518 28.3629 11.0251 27.5551 11.4908C26.7485 11.9566 25.5897 11.4627 24.9687 10.3861C24.3477 9.30943 24.4985 8.05956 25.3051 7.59381C26.1129 7.12806 27.2705 7.62193 27.8926 8.69856" fill="white"/>
<path d="M34.25 14.625C34.25 21.4594 28.7094 27 21.875 27C19.2932 27 16.8958 26.2091 14.9113 24.8569C15.0694 25.5523 15.0486 26.2765 14.8509 26.9618C14.6532 27.647 14.285 28.2709 13.7807 28.7752L10.2009 32.355C9.40693 33.1323 8.33837 33.5649 7.22729 33.559C6.11621 33.5531 5.05231 33.1091 4.26665 32.3234C3.48098 31.5377 3.03698 30.4738 3.03107 29.3628C3.02515 28.2517 3.45779 27.1831 4.23504 26.3891L7.81479 22.8094C8.31505 22.309 8.93313 21.9424 9.61215 21.7435C10.2912 21.5445 11.0093 21.5196 11.7005 21.6709C10.2641 19.6024 9.4961 17.1433 9.50004 14.625C9.50004 7.79063 15.0407 2.25 21.875 2.25C28.7094 2.25 34.25 7.79063 34.25 14.625ZM32 14.625C32 13.2954 31.7382 11.9788 31.2293 10.7503C30.7205 9.52191 29.9747 8.40574 29.0345 7.46554C28.0943 6.52535 26.9781 5.77955 25.7497 5.27072C24.5213 4.76189 23.2047 4.5 21.875 4.5C20.5454 4.5 19.2288 4.76189 18.0004 5.27072C16.772 5.77955 15.6558 6.52535 14.7156 7.46554C13.7754 8.40574 13.0296 9.52191 12.5208 10.7503C12.0119 11.9788 11.75 13.2954 11.75 14.625C11.75 17.3103 12.8168 19.8856 14.7156 21.7845C16.6144 23.6833 19.1897 24.75 21.875 24.75C24.5604 24.75 27.1357 23.6833 29.0345 21.7845C30.9333 19.8856 32 17.3103 32 14.625Z" fill="#533566"/>
</svg>
