<svg width="30" height="30" viewBox="0 0 30 30" fill="none" xmlns="http://www.w3.org/2000/svg">
<path fill-rule="evenodd" clip-rule="evenodd" d="M19.6875 26.8688C19.6875 27.3813 20.1125 27.8063 20.625 27.8063L20.6125 27.8188C21.8375 27.8188 22.45 27.8188 23.025 27.7063C24.1773 27.48 25.2362 26.9157 26.0666 26.0853C26.8969 25.255 27.4612 24.1961 27.6875 23.0438C27.8 22.4688 27.8 21.8563 27.8 20.6313C27.8 20.1188 27.375 19.6938 26.8625 19.6938C26.35 19.6938 25.925 20.1188 25.925 20.6313C25.925 21.7313 25.925 22.2813 25.85 22.6688C25.6943 23.4561 25.3082 24.1795 24.7407 24.747C24.1732 25.3145 23.4498 25.7006 22.6625 25.8563C22.275 25.9313 21.725 25.9313 20.625 25.9313C20.1125 25.9313 19.6875 26.3563 19.6875 26.8688ZM9.375 27.8063L9.3625 27.7938C9.875 27.7938 10.3 27.3688 10.3 26.8563C10.3 26.3438 9.875 25.9188 9.3625 25.9188C8.275 25.9188 7.7125 25.9188 7.325 25.8438C6.53765 25.6881 5.81431 25.302 5.2468 24.7345C4.67928 24.167 4.29318 23.4436 4.1375 22.6563C4.0625 22.2688 4.0625 21.7188 4.0625 20.6188C4.0625 20.1063 3.6375 19.6813 3.125 19.6813C2.6125 19.6813 2.1875 20.1063 2.1875 20.6188C2.1875 21.8438 2.1875 22.4563 2.3 23.0313C2.52783 24.1829 3.09263 25.2409 3.92275 26.071C4.75286 26.9011 5.81086 27.4659 6.9625 27.6938C7.5375 27.8063 8.15 27.8063 9.375 27.8063ZM25.9375 9.36877C25.9375 9.88127 26.3625 10.3063 26.875 10.3063L26.8875 10.3188C27.4 10.3188 27.825 9.89377 27.825 9.38127C27.825 8.15627 27.825 7.54377 27.7125 6.96877C27.4847 5.81714 26.9199 4.75913 26.0898 3.92902C25.2596 3.09891 24.2016 2.5341 23.05 2.30627C22.475 2.19377 21.8625 2.19377 20.6375 2.19377C20.125 2.19377 19.7 2.61877 19.7 3.13127C19.7 3.64377 20.125 4.06877 20.6375 4.06877C21.725 4.06877 22.2875 4.06877 22.675 4.14377C24.2875 4.45627 25.5375 5.71877 25.8625 7.33127C25.9375 7.71877 25.9375 8.26877 25.9375 9.36877ZM2.1875 9.36877C2.1875 9.88127 2.6125 10.3063 3.125 10.3063L3.1375 10.2938C3.65 10.2938 4.075 9.86877 4.075 9.35627C4.075 8.25627 4.075 7.70627 4.15 7.31877C4.30568 6.53143 4.69178 5.80809 5.2593 5.24057C5.82681 4.67306 6.55015 4.28695 7.3375 4.13127C7.725 4.05627 8.275 4.05627 9.375 4.05627C9.8875 4.05627 10.3125 3.63127 10.3125 3.11877C10.3125 2.60627 9.8875 2.18127 9.375 2.18127C8.15 2.18127 7.5375 2.18127 6.9625 2.29377C5.81017 2.52004 4.75132 3.08434 3.92094 3.91472C3.09056 4.7451 2.52627 5.80394 2.3 6.95627C2.1875 7.53127 2.1875 8.14377 2.1875 9.36877ZM13.75 21.5563H16.25C18.775 21.5563 20.175 21.5563 21.175 20.5438C22.1875 19.5438 22.1875 18.1438 22.1875 15.6188C22.1875 13.0938 22.175 11.7063 21.175 10.6938C20.175 9.68127 18.775 9.68127 16.25 9.68127H15.9375V8.11877C15.9375 7.60627 15.5125 7.18127 15 7.18127C14.4875 7.18127 14.0625 7.60627 14.0625 8.11877V9.68127H13.75C11.225 9.68127 9.825 9.68127 8.825 10.6938C7.8125 11.6938 7.8125 13.0938 7.8125 15.6188C7.8125 18.1438 7.825 19.5313 8.825 20.5438C9.825 21.5563 11.225 21.5563 13.75 21.5563ZM10.15 12.0188C10.5875 11.5688 11.5625 11.5563 13.75 11.5563H16.25C18.425 11.5563 19.4125 11.5813 19.85 12.0188C20.3 12.4563 20.3125 13.4438 20.3125 15.6188C20.3125 17.7938 20.2875 18.7813 19.85 19.2188C19.4125 19.6688 18.4375 19.6813 16.25 19.6813H13.75C11.575 19.6813 10.5875 19.6563 10.15 19.2188C9.7 18.7813 9.6875 17.7938 9.6875 15.6188C9.6875 13.4438 9.7125 12.4563 10.15 12.0188ZM16.5625 14.9938C16.5625 15.5063 16.9875 15.9313 17.5 15.9313C18.0125 15.9313 18.4375 15.5063 18.4375 14.9938V14.3688C18.4375 13.8563 18.0125 13.4313 17.5 13.4313C16.9875 13.4313 16.5625 13.8563 16.5625 14.3688V14.9938ZM11.5625 14.9938C11.5625 15.5063 11.9875 15.9313 12.5 15.9313C13.0125 15.9313 13.4375 15.5063 13.4375 14.9938V14.3688C13.4375 13.8563 13.0125 13.4313 12.5 13.4313C11.9875 13.4313 11.5625 13.8563 11.5625 14.3688V14.9938Z" fill="black"/>
</svg>